<?xml version="1.0" encoding="utf-8"?>
<!-- Generator: Adobe Illustrator 26.5.0, SVG Export Plug-In . SVG Version: 6.00 Build 0)  -->
<svg version="1.1" xmlns="http://www.w3.org/2000/svg" xmlns:xlink="http://www.w3.org/1999/xlink" x="0px" y="0px"
	 viewBox="0 0 298.17 281.52" style="enable-background:new 0 0 298.17 281.52;" xml:space="preserve">
<style type="text/css">
	.st0{fill:url(#SVGID_1_);}
	.st1{fill:url(#SVGID_00000183240230079313784080000012173371891285134780_);}
	.st2{fill:url(#SVGID_00000089566635539225400580000010299633606820699566_);}
	.st3{fill:#FFFFFF;}
	.st4{fill:none;}
</style>
<g id="レイヤー_1">
	<g>
		<g>
			
				<linearGradient id="SVGID_1_" gradientUnits="userSpaceOnUse" x1="-145.5886" y1="-562.7136" x2="-53.616" y2="-562.7136" gradientTransform="matrix(0 1 -1 0 -412.6771 158.4192)">
				<stop  offset="0" style="stop-color:#FFFFFF;stop-opacity:0"/>
				<stop  offset="1" style="stop-color:#00ABB6"/>
			</linearGradient>
			<rect x="87.95" y="12.83" class="st0" width="124.16" height="91.97"/>
			
				<linearGradient id="SVGID_00000134931120391871198430000001952947510370172831_" gradientUnits="userSpaceOnUse" x1="-441.2107" y1="-368.5163" x2="-349.2347" y2="-368.5163" gradientTransform="matrix(0.866 -0.5 0.5 0.866 605.6914 303.0843)">
				<stop  offset="0" style="stop-color:#FFFFFF;stop-opacity:0"/>
				<stop  offset="1" style="stop-color:#009FE0"/>
			</linearGradient>
			<polygon style="fill:url(#SVGID_00000134931120391871198430000001952947510370172831_);" points="150.04,212.33 70.39,258.32 
				8.3,150.79 87.95,104.8 			"/>
			
				<linearGradient id="SVGID_00000095303802348685123830000017821116921710346380_" gradientUnits="userSpaceOnUse" x1="-763.7667" y1="-197.5488" x2="-671.7902" y2="-197.5488" gradientTransform="matrix(-0.866 -0.5 0.5 -0.866 -301.9184 -348.4065)">
				<stop  offset="0" style="stop-color:#FFFFFF;stop-opacity:0"/>
				<stop  offset="1" style="stop-color:#FBC21A"/>
			</linearGradient>
			<polygon style="fill:url(#SVGID_00000095303802348685123830000017821116921710346380_);" points="212.12,104.8 291.77,150.79 
				229.69,258.32 150.04,212.33 			"/>
			<polygon points="212.12,176.49 150.04,212.33 87.95,176.49 87.95,104.8 150.04,68.96 212.12,104.8 			"/>
			<g>
				<path class="st3" d="M116.63,105.19h-4.66v-2.36h12.02v2.36h-4.66v12.83h-2.7V105.19z"/>
				<path class="st3" d="M131.43,107.43c3.11,0,5.6,2.17,5.6,5.41c0,3.24-2.49,5.49-5.6,5.49c-3.11,0-5.6-2.25-5.6-5.49
					C125.83,109.59,128.32,107.43,131.43,107.43z M131.43,116.18c2.04,0,2.98-1.74,2.98-3.35c0-1.61-0.94-3.3-2.98-3.3
					c-2.04,0-2.98,1.7-2.98,3.3C128.45,114.44,129.4,116.18,131.43,116.18z"/>
				<path class="st3" d="M140.23,107.73h2.85l2.88,7.49H146l2.55-7.49h2.68l-4.87,12.51c-0.73,1.87-1.63,2.94-3.9,2.94
					c-0.43,0-0.88-0.04-1.33-0.15l0.21-2.23c0.34,0.11,0.69,0.15,0.97,0.15c1.09,0,1.39-0.54,1.82-1.61l0.52-1.31L140.23,107.73z"/>
				<path class="st3" d="M160.05,107.43c3.11,0,5.6,2.17,5.6,5.41c0,3.24-2.49,5.49-5.6,5.49c-3.11,0-5.6-2.25-5.6-5.49
					C154.45,109.59,156.94,107.43,160.05,107.43z M160.05,116.18c2.04,0,2.98-1.74,2.98-3.35c0-1.61-0.94-3.3-2.98-3.3
					s-2.98,1.7-2.98,3.3C157.07,114.44,158.01,116.18,160.05,116.18z"/>
				<path class="st3" d="M169.49,109.79v-2.06h1.8v-2.98h2.53v2.98h2.57v2.06h-2.57v4.78c0,0.92,0.21,1.59,1.35,1.59
					c0.34,0,0.79-0.06,1.09-0.21l0.09,2.02c-0.45,0.17-1.14,0.28-1.72,0.28c-2.72,0-3.35-1.67-3.35-3.65v-4.81H169.49z"/>
				<path class="st3" d="M169.08,139.6v-2.06h1.8v-2.98h2.53v2.98h2.57v2.06h-2.57v4.78c0,0.92,0.21,1.59,1.35,1.59
					c0.34,0,0.79-0.06,1.1-0.21l0.08,2.02c-0.45,0.17-1.14,0.28-1.72,0.28c-2.73,0-3.35-1.67-3.35-3.65v-4.81H169.08z"/>
				<path class="st3" d="M187.76,116.72h-0.06c-0.51,0.9-1.74,1.57-3.2,1.57c-1.65,0-3.86-0.79-3.86-3.2c0-3.07,3.86-3.5,7.08-3.5
					v-0.26c0-1.27-1.07-1.89-2.36-1.89c-1.09,0-2.14,0.51-2.81,1.18l-1.33-1.57c1.16-1.07,2.79-1.63,4.36-1.63
					c3.69,0,4.59,2.27,4.59,4.33v6.26h-2.4V116.72z M187.72,113.33h-0.58c-1.63,0-3.93,0.19-3.93,1.72c0,0.99,0.92,1.29,1.8,1.29
					c1.76,0,2.7-1.01,2.7-2.64V113.33z"/>
				<path class="st3" d="M120.83,135.82c-0.58-0.75-1.72-1.31-2.79-1.31c-1.24,0-2.68,0.6-2.68,2.08c0,1.4,1.18,1.8,2.9,2.34
					c1.95,0.6,4.44,1.46,4.44,4.44c0,3.26-2.55,4.85-5.54,4.85c-1.97,0-4.01-0.75-5.21-2.17l1.93-1.8c0.75,1.03,2.12,1.67,3.33,1.67
					c1.27,0,2.75-0.62,2.75-2.25c0-1.59-1.59-2.04-3.5-2.64c-1.85-0.58-3.84-1.48-3.84-4.31c0-3.09,2.81-4.46,5.56-4.46
					c1.52,0,3.26,0.54,4.42,1.63L120.83,135.82z"/>
				<path class="st3" d="M135.44,146.53h-0.07c-0.51,0.9-1.74,1.57-3.2,1.57c-1.65,0-3.86-0.79-3.86-3.2c0-3.07,3.86-3.5,7.08-3.5
					v-0.26c0-1.27-1.07-1.89-2.36-1.89c-1.09,0-2.15,0.51-2.81,1.18l-1.33-1.57c1.16-1.07,2.79-1.63,4.36-1.63
					c3.69,0,4.59,2.27,4.59,4.34v6.26h-2.4V146.53z M135.4,143.14h-0.58c-1.63,0-3.93,0.19-3.93,1.72c0,0.99,0.92,1.29,1.8,1.29
					c1.76,0,2.7-1.01,2.7-2.64V143.14z"/>
				<path class="st3" d="M145.03,139.6h-1.95v-2.06h1.95v-1.52c0-2.47,0.96-4.65,4.16-4.65c0.56,0,0.92,0.04,1.31,0.15l-0.17,2.19
					c-0.28-0.09-0.62-0.15-0.99-0.15c-1.48,0-1.74,1.29-1.74,2.32v1.67h2.38v2.06h-2.38v8.24h-2.57V139.6z"/>
				<path class="st3" d="M164.8,143.51h-7.83c0.11,1.46,1.44,2.53,2.94,2.53c1.29,0,2.15-0.52,2.72-1.33l1.72,1.37
					c-1.01,1.37-2.47,2.06-4.42,2.06c-3.18,0-5.54-2.04-5.54-5.38c0-3.33,2.34-5.52,5.45-5.52c2.88,0,4.98,1.87,4.98,5.58
					C164.82,143.05,164.82,143.27,164.8,143.51z M162.24,141.66c0-1.33-0.75-2.49-2.42-2.49c-1.52,0-2.75,1.05-2.85,2.49H162.24z"/>
				<path class="st3" d="M180.22,137.54h2.85l2.88,7.49h0.04l2.55-7.49h2.68l-4.87,12.51c-0.73,1.87-1.63,2.94-3.91,2.94
					c-0.43,0-0.88-0.04-1.33-0.15l0.22-2.23c0.34,0.11,0.69,0.15,0.96,0.15c1.1,0,1.4-0.54,1.82-1.61l0.51-1.31L180.22,137.54z"/>
				<path class="st3" d="M120.83,164.46c-0.58-0.75-1.72-1.31-2.79-1.31c-1.24,0-2.68,0.6-2.68,2.08c0,1.39,1.18,1.8,2.9,2.34
					c1.95,0.6,4.44,1.46,4.44,4.44c0,3.26-2.55,4.85-5.54,4.85c-1.97,0-4.01-0.75-5.21-2.17l1.93-1.8c0.75,1.03,2.12,1.67,3.33,1.67
					c1.27,0,2.75-0.62,2.75-2.25c0-1.59-1.59-2.04-3.5-2.64c-1.85-0.58-3.84-1.48-3.84-4.31c0-3.09,2.81-4.46,5.56-4.46
					c1.52,0,3.26,0.54,4.42,1.63L120.83,164.46z"/>
				<path class="st3" d="M140.24,172.14h-7.83c0.11,1.46,1.44,2.53,2.94,2.53c1.29,0,2.15-0.52,2.73-1.33l1.72,1.37
					c-1.01,1.37-2.47,2.06-4.42,2.06c-3.18,0-5.54-2.04-5.54-5.38c0-3.33,2.34-5.51,5.45-5.51c2.88,0,4.98,1.87,4.98,5.58
					C140.26,171.69,140.26,171.91,140.24,172.14z M137.69,170.3c0-1.33-0.75-2.49-2.43-2.49c-1.52,0-2.75,1.05-2.85,2.49H137.69z"/>
				<path class="st3" d="M147.71,166.18h2.45v1.65h0.04c0.45-1.03,1.67-1.95,3.2-1.95c2.68,0,3.8,2.06,3.8,4.16v6.44h-2.58v-5.71
					c0-1.22-0.28-2.75-1.93-2.75c-1.63,0-2.4,1.42-2.4,2.79v5.66h-2.57V166.18z"/>
				<path class="st3" d="M171,168.93c-0.45-0.6-1.31-1.12-2.25-1.12c-0.82,0-1.65,0.3-1.65,1.12c0,0.79,0.79,1.01,2.23,1.35
					c1.52,0.36,3.33,1.05,3.33,3.07c0,2.51-2.04,3.43-4.29,3.43c-1.59,0-3.24-0.6-4.22-1.7l1.69-1.59c0.56,0.73,1.52,1.29,2.64,1.29
					c0.75,0,1.65-0.3,1.65-1.22c0-0.86-0.79-1.12-2.36-1.48c-1.52-0.36-3.04-0.99-3.04-2.92c0-2.3,2.06-3.28,4.1-3.28
					c1.48,0,3.03,0.51,3.86,1.57L171,168.93z"/>
				<path class="st3" d="M190.26,172.14h-7.83c0.11,1.46,1.44,2.53,2.94,2.53c1.29,0,2.15-0.52,2.73-1.33l1.72,1.37
					c-1.01,1.37-2.47,2.06-4.42,2.06c-3.18,0-5.54-2.04-5.54-5.38c0-3.33,2.34-5.51,5.45-5.51c2.88,0,4.98,1.87,4.98,5.58
					C190.28,171.69,190.28,171.91,190.26,172.14z M187.7,170.25c0-1.33-0.75-2.49-2.42-2.49c-1.52,0-2.75,1.05-2.85,2.49H187.7z"/>
			</g>
		</g>
		<rect x="0.97" y="-2.74" class="st4" width="297.93" height="286.91"/>
	</g>
</g>
<g id="TM">
	<g>
		<path class="st3" d="M191.95,164.33h-0.86v-0.53h2.34v0.53h-0.86v2.33h-0.63V164.33z"/>
		<path class="st3" d="M193.84,163.81h0.88l0.67,1.96h0.01l0.63-1.96h0.88v2.85h-0.59v-2.02h-0.01l-0.7,2.02h-0.48l-0.7-2h-0.01v2
			h-0.59V163.81z"/>
	</g>
</g>
</svg>
